<svg height="512pt" viewBox="0 0 512 512" width="512pt" xmlns="http://www.w3.org/2000/svg"><path d="m234.667969 421.332031c-.40625 0-.8125 0-1.21875-.042969-4.648438-.359374-8.914063-2.730468-11.6875-6.503906l-58.667969-80c-5.226562-7.125-3.667969-17.132812 3.457031-22.359375 7.101563-5.203125 17.128907-3.667969 22.355469 3.457031l47.636719 64.960938 109.484375-109.484375c6.25-6.25 16.382812-6.25 22.632812 0s6.25 16.382813 0 22.636719l-122.664062 122.664062c-3.03125 2.988282-7.105469 4.671875-11.328125 4.671875zm0 0"/><path d="m453.332031 512h-394.664062c-32.363281 0-58.667969-26.304688-58.667969-58.667969v-352c0-32.363281 26.304688-58.664062 58.667969-58.664062h394.664062c32.363281 0 58.667969 26.300781 58.667969 58.664062v352c0 32.363281-26.304688 58.667969-58.667969 58.667969zm-394.664062-437.332031c-14.699219 0-26.667969 11.964843-26.667969 26.664062v352c0 14.699219 11.96875 26.667969 26.667969 26.667969h394.664062c14.699219 0 26.667969-11.96875 26.667969-26.667969v-352c0-14.699219-11.96875-26.664062-26.667969-26.664062zm0 0"/><path d="m496 202.667969h-480c-8.832031 0-16-7.167969-16-16s7.167969-16 16-16h480c8.832031 0 16 7.167969 16 16s-7.167969 16-16 16zm0 0"/><path d="m122.667969 128c-8.832031 0-16-7.167969-16-16v-96c0-8.832031 7.167969-16 16-16s16 7.167969 16 16v96c0 8.832031-7.167969 16-16 16zm0 0"/><path d="m389.332031 128c-8.832031 0-16-7.167969-16-16v-96c0-8.832031 7.167969-16 16-16s16 7.167969 16 16v96c0 8.832031-7.167969 16-16 16zm0 0"/></svg>