<?xml version="1.0" encoding="iso-8859-1"?>
<!-- Generator: Adobe Illustrator 19.0.0, SVG Export Plug-In . SVG Version: 6.00 Build 0)  -->
<svg version="1.1" id="Capa_1" xmlns="http://www.w3.org/2000/svg" xmlns:xlink="http://www.w3.org/1999/xlink" x="0px" y="0px"
	 viewBox="0 0 512.001 512.001" style="enable-background:new 0 0 512.001 512.001;" xml:space="preserve">
<g>
	<g>
		<path d="M497,25c-38.567,0-460.58,0-482,0C6.716,25,0,31.716,0,40s6.716,15,15,15h36v417c0,5.025,2.517,9.717,6.703,12.496
			c4.192,2.784,9.495,3.276,14.117,1.329l89.183-37.549l89.183,37.549c3.721,1.567,7.919,1.567,11.642,0l89.177-37.549
			l89.175,37.549c4.631,1.95,9.933,1.451,14.118-1.328c4.187-2.78,6.703-7.471,6.703-12.496V55h36c8.284,0,15-6.716,15-15
			S505.284,25,497,25z M431,449.408l-74.175-31.233c-3.723-1.567-7.92-1.567-11.643,0l-89.177,37.549l-89.183-37.549
			c-3.721-1.567-7.92-1.567-11.641,0L81,449.409V55h350V449.408z"/>
	</g>
</g>
<g>
	<g>
		<path d="M331,105H181c-8.284,0-15,6.716-15,15s6.716,15,15,15h150c8.284,0,15-6.716,15-15S339.284,105,331,105z"/>
	</g>
</g>
<g>
	<g>
		<path d="M366,225H226c-8.284,0-15,6.716-15,15s6.716,15,15,15h140c8.284,0,15-6.716,15-15S374.284,225,366,225z"/>
	</g>
</g>
<g>
	<g>
		<circle cx="148" cy="240" r="20"/>
	</g>
</g>
<g>
	<g>
		<path d="M366,305H226c-8.284,0-15,6.716-15,15s6.716,15,15,15h140c8.284,0,15-6.716,15-15S374.284,305,366,305z"/>
	</g>
</g>
<g>
	<g>
		<circle cx="148" cy="320" r="20"/>
	</g>
</g>
<g>
</g>
<g>
</g>
<g>
</g>
<g>
</g>
<g>
</g>
<g>
</g>
<g>
</g>
<g>
</g>
<g>
</g>
<g>
</g>
<g>
</g>
<g>
</g>
<g>
</g>
<g>
</g>
<g>
</g>
</svg>
