<?xml version="1.0" encoding="iso-8859-1"?>
<!-- Generator: Adobe Illustrator 19.0.0, SVG Export Plug-In . SVG Version: 6.00 Build 0)  -->
<svg version="1.1" id="Layer_1" xmlns="http://www.w3.org/2000/svg" xmlns:xlink="http://www.w3.org/1999/xlink" x="0px" y="0px"
	 viewBox="0 0 511.999 511.999" style="enable-background:new 0 0 511.999 511.999;" xml:space="preserve">
<g>
	<g>
		<g>
			<path d="M155.961,0v35.93l39.99,31.992V495.94c0,8.855,7.204,16.059,16.059,16.059h127.969c8.855,0,16.059-7.204,16.059-16.059V0
				H155.961z M212.075,495.94V72.11h47.925V55.986h-53.158l-34.756-27.805V16.124h167.83l0.064,479.753L212.075,495.94z"/>
			<rect x="275.993" y="55.981" width="15.997" height="16.124"/>
			<polygon points="244.067,112.1 283.992,112.1 283.992,95.976 227.943,95.976 227.943,480.008 283.992,480.008 283.992,463.884 
				244.067,463.884 			"/>
			<rect x="259.998" y="279.927" width="39.987" height="16.124"/>
			<rect x="259.998" y="183.949" width="39.987" height="16.124"/>
			<rect x="259.998" y="135.965" width="23.993" height="16.124"/>
			<rect x="259.998" y="231.943" width="23.993" height="16.124"/>
			<rect x="259.998" y="327.921" width="23.993" height="16.124"/>
			<rect x="259.998" y="423.9" width="23.993" height="16.124"/>
			<rect x="259.998" y="375.905" width="39.987" height="16.124"/>
		</g>
	</g>
</g>
<g>
</g>
<g>
</g>
<g>
</g>
<g>
</g>
<g>
</g>
<g>
</g>
<g>
</g>
<g>
</g>
<g>
</g>
<g>
</g>
<g>
</g>
<g>
</g>
<g>
</g>
<g>
</g>
<g>
</g>
</svg>
